<svg xmlns="http://www.w3.org/2000/svg" width="660" height="661.019" viewBox="0 0 660 661.019">
  <g id="šipka" transform="translate(-2915.228 -806.26)">
    <path id="Path_98" data-name="Path 98" d="M330,0C512.254,0,660,147.746,660,330S512.254,660,330,660,0,512.254,0,330,147.746,0,330,0Z" transform="translate(2915.228 807.279)" fill="none"/>
    <g id="Group_88" data-name="Group 88">
      <path id="Path_48" data-name="Path 48" d="M3441.84,873.6a329.741,329.741,0,0,0-248.848-61.045,328.305,328.305,0,0,0-63.46,16.928,328.931,328.931,0,0,0-58.905,29.063q-6.975,4.359-13.722,9.067l-3.5,2.471-.429.309-.856.618,2.046,1.245c-2.719.6-5.418,1.265-8.147,1.937,1.414-2.41,2.841-4.846,4.329-7.243l.527,2.341.862-.622.431-.311,3.523-2.488q6.794-4.728,13.811-9.125a330.98,330.98,0,0,1,59.281-29.249,330.477,330.477,0,0,1,63.87-17.038A331.869,331.869,0,0,1,3443.108,871.9Z" fill="#dde0ed"/>
    </g>
  </g>
</svg>
