<svg id="profile_icon" data-name="profile icon" xmlns="http://www.w3.org/2000/svg" xmlns:xlink="http://www.w3.org/1999/xlink" width="36.445" height="40" viewBox="0 0 36.445 40">
  <defs>
    <clipPath id="clip-path">
      <path id="Path_71" data-name="Path 71" d="M137.348,38.164a18.047,18.047,0,0,0,2.19-1.263s.013-.009.017-.013a18.19,18.19,0,0,0,7.993-13.907c.013-.185.022-.375.03-.565,0-.056.013-.116.017-.172V10.518L139.581,5.9s-.009-.009-.013-.009l-2.255-1.3a.1.1,0,0,1-.022-.013L129.372,0l-7.919,4.574-.022.013L119.16,5.9s0,0-.009.009l-8,4.617v11.79c0,.039.009.073.013.112.009.207.017.418.034.625a18.187,18.187,0,0,0,7.98,13.829l.009.009a18.751,18.751,0,0,0,2.212,1.276,18.236,18.236,0,0,0,15.951,0Z" transform="translate(-111.15 0)" fill="#394174"/>
    </clipPath>
  </defs>
  <path id="Path_69" data-name="Path 69" d="M137.348,38.164a18.047,18.047,0,0,0,2.19-1.263s.013-.009.017-.013a18.19,18.19,0,0,0,7.993-13.907c.013-.185.022-.375.03-.565,0-.056.013-.116.017-.172V10.518L139.581,5.9s-.009-.009-.013-.009l-2.255-1.3a.1.1,0,0,1-.022-.013L129.372,0l-7.919,4.574-.022.013L119.16,5.9s0,0-.009.009l-8,4.617v11.79c0,.039.009.073.013.112.009.207.017.418.034.625a18.187,18.187,0,0,0,7.98,13.829l.009.009a18.751,18.751,0,0,0,2.212,1.276,18.236,18.236,0,0,0,15.951,0Z" transform="translate(-111.15)" fill="#394174"/>
  <g id="Mask_Group_15" data-name="Mask Group 15" transform="translate(0)" clip-path="url(#clip-path)">
    <g id="Group_95" data-name="Group 95" transform="translate(5.679 11.606)">
      <g id="Ellipse_41" data-name="Ellipse 41" transform="translate(6.321 0.394)" fill="none" stroke="#fff" stroke-width="2">
        <ellipse cx="6" cy="5.5" rx="6" ry="5.5" stroke="none"/>
        <ellipse cx="6" cy="5.5" rx="5" ry="4.5" fill="none"/>
      </g>
      <g id="Path_70" data-name="Path 70" transform="translate(0 13.25)" fill="none">
        <path d="M12.3,0c6.8,0,12.3,4.661,12.3,10.411S19.1,20.821,12.3,20.821,0,16.16,0,10.411,5.509,0,12.3,0Z" stroke="none"/>
        <path d="M 12.30385684967041 1.999996185302734 C 6.622287750244141 1.999996185302734 1.999996185302734 5.772976875305176 1.999996185302734 10.41059684753418 C 1.999996185302734 15.04821681976318 6.622287750244141 18.82119750976562 12.30385684967041 18.82119750976562 C 17.98542785644531 18.82119750976562 22.60771751403809 15.04821681976318 22.60771751403809 10.41059684753418 C 22.60771751403809 5.772976875305176 17.98542785644531 1.999996185302734 12.30385684967041 1.999996185302734 M 12.30385684967041 -3.814697265625e-06 C 19.09908676147461 -3.814697265625e-06 24.60771751403809 4.660985946655273 24.60771751403809 10.41059684753418 C 24.60771751403809 16.16020584106445 19.09908676147461 20.82119750976562 12.30385684967041 20.82119750976562 C 5.508626937866211 20.82119750976562 -3.814697265625e-06 16.16020584106445 -3.814697265625e-06 10.41059684753418 C -3.814697265625e-06 4.660985946655273 5.508626937866211 -3.814697265625e-06 12.30385684967041 -3.814697265625e-06 Z" stroke="none" fill="#fff"/>
      </g>
    </g>
  </g>
</svg>
